<svg xmlns="http://www.w3.org/2000/svg" viewBox="0 0 500 500"><g id="freepik--background-simple--inject-60"><path d="M95,136.33c41.43-30.26,87,54.41,134,76s106.42-77.47,180-29c44.72,29.45,49.78,183.11-138.61,194.88S15.14,194.67,95,136.33Z" style="fill:#1B2058"></path><path d="M95,136.33c41.43-30.26,87,54.41,134,76s106.42-77.47,180-29c44.72,29.45,49.78,183.11-138.61,194.88S15.14,194.67,95,136.33Z" style="fill:#fff;opacity:0.9;isolation:isolate"></path></g><g id="freepik--Shadow--inject-60"><ellipse id="freepik--path--inject-60" cx="250" cy="416.24" rx="193.89" ry="11.32" style="fill:#f5f5f5"></ellipse></g><g id="freepik--Character--inject-60"><g id="freepik--group--inject-60"><path d="M296.18,185.5l.31-7.73s2.07-2.05,2.07-3.38-2.38-8.94-3.42-9.3-6.63,2.29-6.73,4,2.9,8,3.42,8.46l-.83,8.21Z" style="fill:#e4897b"></path><path d="M380.41,174.83l-2.66-7.65a21.52,21.52,0,0,1-3.14-2.74c-.73-1,3.34-8.21,3.94-8.21a20.69,20.69,0,0,1,5.48,3.06c.6.72-2.58,6.6-2.58,6.6l3.95,6.6Z" style="fill:#e4897b"></path><path d="M364.94,173.54c3.67.36,21.3,19.21,21.3,19.21l-7.61-21.14,6-2.05s14.86,23.67,11.6,32.36-32.37-11.23-32.37-11.23Z" style="fill:#1B2058"></path><polygon points="308.52 398.49 304.41 393.12 311.37 386.4 317.7 380.3 323.65 385.86 315.65 392.55 308.52 398.49" style="fill:#e4897b"></polygon><path d="M304.17,391.47c.61-.43,5.7,7.2,5.7,7.2s-1.13,8,1.17,13.09-2.17,4.7-5.89-.16l-9.18-12C293.33,396.11,297.92,396,304.17,391.47Z" style="fill:#2e353a"></path><path d="M309.79,400.15s3.41-1.1,3.81.74c.45,2.12-3.81-.74-3.81-.74s3.44,2.56,2.53,3.72C310.94,405.61,309.79,400.15,309.79,400.15Z" style="fill:none;stroke:#1B2058;stroke-linecap:round;stroke-linejoin:round;stroke-width:0.48312000000000005px"></path><polygon points="315.65 392.55 311.37 386.4 317.7 380.3 323.65 385.86 315.65 392.55" style="opacity:0.2;isolation:isolate"></polygon><polygon points="349.65 407 342.88 407 341.77 397.58 340.77 388.94 348.8 387.63 349.25 397.89 349.65 407" style="fill:#e4897b"></polygon><path d="M341.43,406.57c0-.75,9.18-.16,9.18-.16s5.64,5.73,11.11,7S364.14,418,358,418H342.88C338.53,418,341.25,414.3,341.43,406.57Z" style="fill:#2e353a"></path><path d="M351.74,407.37s1.2-3.38,2.9-2.58c2,.93-2.9,2.58-2.9,2.58s4.13-1.18,4.49.24C356.78,409.77,351.74,407.37,351.74,407.37Z" style="fill:none;stroke:#1B2058;stroke-linecap:round;stroke-linejoin:round;stroke-width:0.48312000000000005px"></path><polygon points="349.25 398.1 341.77 397.77 340.77 389.03 348.8 387.68 349.25 398.1" style="opacity:0.2;isolation:isolate"></polygon><path d="M366.53,244.26s20,47.25,23.13,68-67.86,76.31-67.86,76.31l-7.26-7.72s52.82-54.3,52.82-63.64-20.6-52-20.6-52S344.77,248,366.53,244.26Z" style="fill:#1B2058"></path><path d="M352.06,362.7c-7.25,6.68-14.27,12.71-19.72,17.27-6.33,5.28-10.54,8.58-10.54,8.58l-7.26-7.72s7.26-7.45,16.38-17.32c7.18-7.76,15.53-17,22.42-25.28,8-9.6,14-17.89,14-21,0-4.93-5.73-19.11-11.14-31.43-4.86-11-9.46-20.57-9.46-20.57a17.63,17.63,0,0,1,.57-5.84c1.39-5.35,5.78-12.78,19.21-15.09,0,0,20,47.25,23.12,68C391.38,323.57,370.94,345.32,352.06,362.7Z" style="fill:#fff;opacity:0.6000000000000001;isolation:isolate"></path><path d="M353.34,338.23l-1.28,24.47c-7.25,6.68-14.27,12.71-19.72,17.27a58.25,58.25,0,0,1-1.42-16.46C338.1,355.75,346.45,346.51,353.34,338.23Z" style="opacity:0.2;isolation:isolate"></path><path d="M356.22,285.76c-4.86-11-9.46-20.57-9.46-20.57a17.63,17.63,0,0,1,.57-5.84,6.91,6.91,0,0,1,2.27-1S355.51,267.68,356.22,285.76Z" style="opacity:0.2;isolation:isolate"></path><path d="M330.51,135.82s6.07-7.57,16-5.88S354.72,150,354.72,150A13.27,13.27,0,0,1,359,163.16c-1.94,8.33-24.59,13.15-33.25,7.36s-2-24.16,2.21-26.76S330.51,135.82,330.51,135.82Z" style="fill:#2e353a"></path><path d="M349.79,258.4,351,324.92V393H339.67c-27.06-129-8.51-161.34-8.51-161.34l.07,0c0-.05,0-.11.06-.15,4.35-9.66,32.85-2.54,32.85-2.54,2.05,8,3.31,24.27,3.31,24.27Z" style="fill:#1B2058"></path><path d="M349.79,258.4,351,324.92V393H339.67c-27.06-129-8.51-161.34-8.51-161.34l.07,0c0-.05,0-.11.06-.15,4.35-9.66,32.85-2.54,32.85-2.54,2.05,8,3.31,24.27,3.31,24.27Z" style="fill:#fff;opacity:0.6000000000000001;isolation:isolate"></path><polygon points="331 226.68 331 231.52 364 228.99 364 223.27 331 226.68" style="fill:#2e353a"></polygon><rect x="340.65" y="224.69" width="1.64" height="8.35" transform="translate(-11.23 17.72) rotate(-2.92)" style="fill:#1B2058"></rect><rect x="349.39" y="224.76" width="7.24" height="5.49" transform="translate(-18.89 32.39) rotate(-5.12)" style="fill:#fff"></rect><rect x="360.81" y="222.48" width="1.64" height="8.35" transform="translate(-11.08 18.72) rotate(-2.92)" style="fill:#1B2058"></rect><rect x="340.65" y="224.69" width="1.64" height="8.35" transform="translate(-11.23 17.72) rotate(-2.92)" style="fill:#fff;opacity:0.6000000000000001;isolation:isolate"></rect><rect x="360.81" y="222.48" width="1.64" height="8.35" transform="translate(-11.08 18.72) rotate(-2.92)" style="fill:#fff;opacity:0.6000000000000001;isolation:isolate"></rect><path d="M364.14,223.85l-33,2.85c-.78-12.27-1.56-20.18-8.83-42-.63-1.91-1.31-3.94-2.06-6.08a98,98,0,0,1,13.7-3.31,105.2,105.2,0,0,1,14.82-1.56c6.42,0,13.8.67,13.8.67s1.05.25,1.71,7.06C364.87,187.82,365.46,200.6,364.14,223.85Z" style="fill:#1B2058"></path><path d="M364.14,223.85l-33,2.85c-.78-12.27-1.56-20.18-8.83-42-.63-1.91-1.31-3.94-2.06-6.08a98,98,0,0,1,13.7-3.31,105.2,105.2,0,0,1,14.82-1.56c6.42,0,13.8.67,13.8.67s1.05.25,1.71,7.06C364.87,187.82,365.46,200.6,364.14,223.85Z" style="opacity:0.30000000000000004;isolation:isolate"></path><path d="M346,181c-8.14-1-10.58-4.52-10.58-4.52,5.16-4.87.87-13.31.87-13.31l9.79,1.83a27.67,27.67,0,0,0-.38,4.13c-.08,5.94,2.61,6,2.61,6C350.07,178.34,346,181,346,181Z" style="fill:#e4897b"></path><path d="M346.12,165a27.67,27.67,0,0,0-.38,4.13c-4.72-1.1-9.41-6-9.41-6Z" style="opacity:0.2;isolation:isolate"></path><path d="M337.39,137.89c8.3-2,12,1.85,14.65,10.25,3.29,10.5,2.72,18.65-8.19,18.83C329,167.21,323.62,141.16,337.39,137.89Z" style="fill:#e4897b"></path><path d="M346.57,149a18.12,18.12,0,0,0,3.23,2.87,2.33,2.33,0,0,1-2,1.45Z" style="fill:#de5753"></path><path d="M341.33,149.47c.18.68,0,1.32-.49,1.44s-1-.33-1.14-1,0-1.32.49-1.44S341.16,148.79,341.33,149.47Z" style="fill:#2e353a"></path><path d="M340,148.54l1.33-1S340.93,149,340,148.54Z" style="fill:#2e353a"></path><path d="M349.72,147.13c.18.67-.05,1.32-.5,1.44s-1-.34-1.14-1,.05-1.32.5-1.44S349.54,146.45,349.72,147.13Z" style="fill:#2e353a"></path><path d="M348.4,146.19l1.32-1S349.31,146.66,348.4,146.19Z" style="fill:#2e353a"></path><path d="M339.89,143.76a4.44,4.44,0,0,0-3.3,2.11" style="fill:none;stroke:#2e353a;stroke-linecap:round;stroke-linejoin:round;stroke-width:0.7246800000000001px"></path><path d="M345.84,142a4,4,0,0,1,3.47-.1" style="fill:none;stroke:#2e353a;stroke-linecap:round;stroke-linejoin:round;stroke-width:0.7246800000000001px"></path><path d="M347.4,156.82a22.33,22.33,0,0,0-.29,3.11l-.54.08c-2.47.33-3.73-.34-4.37-1.17a3.31,3.31,0,0,1-.59-1.41,3.08,3.08,0,0,1,0-.87,11.74,11.74,0,0,0,5,.36C347.07,156.88,347.4,156.82,347.4,156.82Z" style="fill:#2e353a"></path><path d="M346.55,156.92l-.1.92c-2.33.3-4,.2-4.84-.41a3.08,3.08,0,0,1,0-.87A11.74,11.74,0,0,0,346.55,156.92Z" style="fill:#fff"></path><path d="M346.57,160c-2.47.33-3.73-.34-4.37-1.17A8,8,0,0,1,345,159,3,3,0,0,1,346.57,160Z" style="fill:#de5753"></path><path d="M331.64,154s2.26-7.73.43-12.85c0,0,14.84-10.61,19.61,5.88,0,0-1.9-15.2-16.24-12.15s-9.33,23.9-.5,28.37C334.94,163.27,330.25,158.85,331.64,154Z" style="fill:#2e353a"></path><path d="M333.41,155.45a3.74,3.74,0,0,0-4.7-2.39c-2.51.88-2.48,6.45,4.21,6.21C333.88,159.23,334.19,158.21,333.41,155.45Z" style="fill:#e4897b"></path><path d="M364.27,181.43c-12.4,6.13-31.4,4.7-42,3.22-.63-1.91-1.31-3.94-2.06-6.08a98,98,0,0,1,13.7-3.31,105.2,105.2,0,0,1,14.82-1.56c6.42,0,13.8.67,13.8.67S363.61,174.62,364.27,181.43Z" style="fill:#e4897b"></path><path d="M327.17,175.23s8.89,11.36,9.16,23.67S328.39,268,328.39,268l-9.9-2.8s7.48-43.7,0-85.91Z" style="fill:#1B2058"></path><path d="M354.72,174s3.62,11.77,3.14,20.23,8.67,50.11,8.67,50.11l2.66,6.4-2.63-25.83S368.15,187,364.94,174Z" style="fill:#1B2058"></path><path d="M337.39,137.89s3.07,10.45-6.28,15.18c-11.3,5.72-10.22,18.08.8,19.65,0,0-11.13-1.12-13.29-8.39s4-18.46,4-18.46-3.38-6.15,5.75-11C333.49,132.17,337.39,137.89,337.39,137.89Z" style="fill:#2e353a"></path><polygon points="338.21 391.37 352.37 389.29 351.19 394.95 339.5 396.52 338.21 391.37" style="fill:#1B2058"></polygon><polygon points="314.54 378.22 324.04 388.55 319.29 391.27 311.96 383.49 314.54 378.22" style="fill:#1B2058"></polygon><path d="M370.82,151.36c-1.71-3.06-5-4.46-7.42-3.12s-2.93,4.89-1.23,7.95,5,4.45,7.42,3.12S372.53,154.41,370.82,151.36Z" style="fill:#1B2058"></path><path d="M390.23,140.64l-5.88-10.81s-4.1,8.81-10,12.11l3,5.36.47.84,3,5.36c5.9-3.3,15.55-2.19,15.55-2.19Z" style="fill:#1B2058"></path><path d="M370.82,151.36c-1.71-3.06-5-4.46-7.42-3.12s-2.93,4.89-1.23,7.95,5,4.45,7.42,3.12S372.53,154.41,370.82,151.36Z" style="fill:#fff;opacity:0.8;isolation:isolate"></path><path d="M390.23,140.64l-5.88-10.81s-4.1,8.81-10,12.11l3,5.36.47.84,3,5.36c5.9-3.3,15.55-2.19,15.55-2.19Z" style="fill:#fff;opacity:0.8;isolation:isolate"></path><path d="M370.42,157.69s4.25,6.15,8.22,8.4a.65.65,0,0,0,.83-.18l3.39-4.19a.67.67,0,0,0-.25-1c-1.67-.74-5.57-2.64-7.82-5.3C371.87,151.94,370.42,157.69,370.42,157.69Z" style="fill:#1B2058"></path><path d="M370.42,157.69s4.25,6.15,8.22,8.4a.65.65,0,0,0,.83-.18l3.39-4.19a.67.67,0,0,0-.25-1c-1.67-.74-5.57-2.64-7.82-5.3C371.87,151.94,370.42,157.69,370.42,157.69Z" style="opacity:0.30000000000000004;isolation:isolate"></path><path d="M396.3,151.63c-1.35.75-5.19-3.54-8.57-9.59s-5-11.56-3.67-12.32,5.19,3.54,8.57,9.58S397.66,150.87,396.3,151.63Z" style="fill:#fff"></path><path d="M395.75,149.84c-1,.57-4-2.81-6.83-7.66-.16-.27-.32-.56-.48-.85s-.38-.68-.56-1c-2.59-4.9-3.87-9.12-2.87-9.68s4.37,3.21,7.33,8.51S396.83,149.24,395.75,149.84Z" style="opacity:0.4;isolation:isolate"></path><path d="M369,160.43s-1.45-1-4.08-5.74c-2.85-5.1-2.77-6.52-2.77-6.52l13.17-7.37s.16,1.85,2.83,6.63,4,5.63,4,5.63Z" style="fill:#1B2058"></path><path d="M388.92,142.18c-.16-.27-.32-.56-.48-.85s-.38-.68-.56-1l1.36-.43a.62.62,0,0,1,.75.34l.11.2a.61.61,0,0,1-.1.81Z" style="fill:#fff"></path><path d="M388.92,142.18c-.16-.27-.32-.56-.48-.85s-.38-.68-.56-1l1.36-.43a.62.62,0,0,1,.75.34l.11.2a.61.61,0,0,1-.1.81Z" style="opacity:0.2;isolation:isolate"></path><path d="M318.49,179.28c-4.59,2-21,31.3-21,31.3l-.32-27.7-7.41-1s-4.51,39.29,5.15,41.54,27.38-25.76,27.38-25.76Z" style="fill:#1B2058"></path><path d="M336.33,136.65s4.25,3.07,1.09,11.08" style="fill:none;stroke:#2e353a;stroke-linecap:round;stroke-linejoin:round;stroke-width:0.5px"></path><path d="M353.81,149.35s11.69,7.57,4.11,17.32" style="fill:none;stroke:#2e353a;stroke-linecap:round;stroke-linejoin:round;stroke-width:0.5px"></path></g></g><g id="freepik--Phone--inject-60"><g id="freepik--group--inject-60"><rect x="105.57" y="77.88" width="188.74" height="339.47" rx="10.4" style="fill:#2e353a"></rect><path d="M288,89.26V405.38a4.62,4.62,0,0,1-4.69,4.62H116.19a4.14,4.14,0,0,1-4.19-4.24V88.88A3.73,3.73,0,0,1,115.59,85h41.78a2.94,2.94,0,0,1,2.69,1.88l1.73,4.26A2.94,2.94,0,0,0,164.48,93h71.13a2.91,2.91,0,0,0,2.69-1.83L240,86.89A3,3,0,0,1,242.72,85H283.9A4.22,4.22,0,0,1,288,89.26Z" style="fill:#1B2058"></path><rect x="112" y="105.5" width="176" height="39.5" style="fill:#fff;opacity:0.2;isolation:isolate"></rect><rect x="131.85" y="94.84" width="2.17" height="2.9" transform="translate(265.87 192.57) rotate(180)" style="fill:#fff;opacity:0.6000000000000001;isolation:isolate"></rect><rect x="128.3" y="93.87" width="2.17" height="3.87" transform="translate(258.78 191.61) rotate(180)" style="fill:#fff;opacity:0.6000000000000001;isolation:isolate"></rect><rect x="124.76" y="92.9" width="2.17" height="4.83" transform="translate(251.7 190.64) rotate(180)" style="fill:#fff;opacity:0.6000000000000001;isolation:isolate"></rect><rect x="121.22" y="91.94" width="2.17" height="5.8" transform="translate(244.61 189.67) rotate(180)" style="fill:#fff;opacity:0.6000000000000001;isolation:isolate"></rect><rect x="267.25" y="93.78" width="1.29" height="2.9" style="fill:#fff;opacity:0.6000000000000001;isolation:isolate"></rect><rect x="269.42" y="92.72" width="10.27" height="5.01" transform="translate(549.1 190.46) rotate(180)" style="fill:#fff;opacity:0.6000000000000001;isolation:isolate"></rect><circle cx="196.01" cy="85.41" r="2.42" style="fill:#fff;opacity:0.6000000000000001;isolation:isolate"></circle><path d="M203.32,85.41a1.55,1.55,0,1,1-1.55-1.55A1.55,1.55,0,0,1,203.32,85.41Z" style="fill:#fff;opacity:0.6000000000000001;isolation:isolate"></path><path d="M288,350v55.38a4.62,4.62,0,0,1-4.69,4.62H116.19a4.14,4.14,0,0,1-4.19-4.24V350Z" style="fill:#fff;opacity:0.2;isolation:isolate"></path><polygon points="131.33 244.21 199.94 186.56 268.54 244.21 214.75 316.36 166.44 315.39 131.33 244.21" style="fill:#1B2058"></polygon><polygon points="131.33 244.21 199.94 186.56 268.54 244.21 214.75 316.36 166.44 315.39 131.33 244.21" style="opacity:0.30000000000000004;isolation:isolate"></polygon><rect x="151.14" y="167.56" width="97.59" height="142.68" rx="2.25" style="fill:#fff"></rect><rect x="161.53" y="180.44" width="76.82" height="2.9" rx="0.72" style="opacity:0.2;isolation:isolate"></rect><rect x="161.53" y="190.11" width="76.82" height="2.9" rx="0.72" style="opacity:0.2;isolation:isolate"></rect><rect x="161.53" y="199.78" width="76.82" height="2.9" rx="0.72" style="opacity:0.2;isolation:isolate"></rect><rect x="161.53" y="209.45" width="76.82" height="2.9" rx="0.72" style="opacity:0.2;isolation:isolate"></rect><rect x="161.53" y="219.12" width="76.82" height="2.9" rx="0.72" style="opacity:0.2;isolation:isolate"></rect><rect x="161.53" y="228.79" width="76.82" height="2.9" rx="0.72" style="opacity:0.2;isolation:isolate"></rect><rect x="161.53" y="238.46" width="76.82" height="2.9" rx="0.72" style="opacity:0.2;isolation:isolate"></rect><rect x="161.53" y="248.12" width="76.82" height="2.9" rx="0.72" style="opacity:0.2;isolation:isolate"></rect><rect x="161.53" y="257.79" width="76.82" height="2.9" rx="0.72" style="opacity:0.2;isolation:isolate"></rect><path d="M203.61,294.49l-.38-.21a4.55,4.55,0,0,0-4.45,0l-1.85,1.05L131,244.21v84.38a4.43,4.43,0,0,0,4.52,4.41H264.36c2.48,0,3.64-1.91,3.64-4.41V244.21Z" style="fill:#1B2058"></path><path d="M203.61,294.49l-.38-.21a4.55,4.55,0,0,0-4.45,0l-1.85,1.05L131,244.21v84.38a4.43,4.43,0,0,0,4.52,4.41H264.36c2.48,0,3.64-1.91,3.64-4.41V244.21Z" style="fill:#fff;opacity:0.6000000000000001;isolation:isolate"></path><polygon points="193.95 293.04 196.93 295.35 150.34 321.8 193.95 293.04" style="opacity:0.2;isolation:isolate"></polygon><polygon points="254.5 322.8 203.54 294.54 205.89 292.7 254.5 322.8" style="opacity:0.2;isolation:isolate"></polygon><rect x="173" y="111.67" width="57.33" height="5.33" rx="0.83" style="fill:#1B2058"></rect><path d="M275.67,139.67H250a3.34,3.34,0,0,1-3.33-3.34h0A3.33,3.33,0,0,1,250,133h25.67a3.33,3.33,0,0,1,3.33,3.33h0A3.34,3.34,0,0,1,275.67,139.67Z" style="fill:#1B2058"></path><rect x="124.67" y="358.33" width="25.67" height="24.33" style="fill:#1B2058"></rect><rect x="155.89" y="358.33" width="25.67" height="24.33" style="fill:#1B2058"></rect><rect x="187.12" y="358.33" width="25.67" height="24.33" style="fill:#1B2058"></rect><rect x="218.35" y="358.33" width="25.67" height="24.33" style="fill:#1B2058"></rect><rect x="249.57" y="358.33" width="25.67" height="24.33" style="fill:#1B2058"></rect><path d="M275.67,399.83H250a3.33,3.33,0,0,1-3.33-3.33h0a3.34,3.34,0,0,1,3.33-3.34h25.67A3.34,3.34,0,0,1,279,396.5h0A3.33,3.33,0,0,1,275.67,399.83Z" style="fill:#1B2058"></path><polygon points="269.96 78 105.57 311.92 105.57 208.29 197.05 78 269.96 78" style="fill:#fff;opacity:0.1;isolation:isolate"></polygon><path d="M174.86,78,106,176.34v-88A9.94,9.94,0,0,1,116,78Z" style="fill:#fff;opacity:0.1;isolation:isolate"></path></g></g><g id="freepik--paper-plane--inject-60"><g id="freepik--group--inject-60"><g id="freepik--group--inject-60"><path d="M335.57,94.91c-44.09,6.21-102.82,23.71-153.26,45.66-32.82,14.28-90.07,42.71-104.7,72.65-4.38,9-4.42,17.34-.1,24.83S91.86,250.75,106,254.3v-1.64c-13.5-3.41-23.12-8.34-27.15-15.35s-4-14.93.15-23.43c10.53-21.56,48.42-47.78,104-71.94C233.24,120,291.82,102.59,335.78,96.4a.75.75,0,1,0-.21-1.49Z" style="fill:#fff"></path><path d="M335.57,94.91c-44.09,6.21-102.82,23.71-153.26,45.66-32.82,14.28-90.07,42.71-104.7,72.65-4.38,9-4.42,17.34-.1,24.83S91.86,250.75,106,254.3v-1.64c-13.5-3.41-23.12-8.34-27.15-15.35s-4-14.93.15-23.43c10.53-21.56,48.42-47.78,104-71.94C233.24,120,291.82,102.59,335.78,96.4a.75.75,0,1,0-.21-1.49Z" style="fill:#1B2058"></path><path d="M78.16,238.43a.74.74,0,0,1-.65-.38c-4.32-7.49-4.28-15.85.1-24.83,14.63-29.94,71.88-58.37,104.7-72.65,50.44-21.95,109.17-39.45,153.26-45.66a.75.75,0,1,1,.21,1.49c-44,6.19-102.54,23.64-152.87,45.54C127.38,166.1,89.49,192.32,79,213.88c-4.15,8.5-4.2,16.39-.15,23.43a.75.75,0,0,1-.28,1A.74.74,0,0,1,78.16,238.43Z" style="fill:#1B2058"></path></g><g style="opacity:0.8;isolation:isolate"><path d="M78.16,238.43a.74.74,0,0,1-.65-.38c-4.32-7.49-4.28-15.85.1-24.83,14.63-29.94,71.88-58.37,104.7-72.65,50.44-21.95,109.17-39.45,153.26-45.66a.75.75,0,1,1,.21,1.49c-44,6.19-102.54,23.64-152.87,45.54C127.38,166.1,89.49,192.32,79,213.88c-4.15,8.5-4.2,16.39-.15,23.43a.75.75,0,0,1-.28,1A.74.74,0,0,1,78.16,238.43Z" style="fill:#fff"></path></g></g><g id="freepik--group--inject-60"><polygon points="356.18 105.5 398.66 83 361.5 95.23 356.18 105.5" style="fill:#1B2058"></polygon><polygon points="356.18 105.5 398.66 83 361.5 95.23 356.18 105.5" style="opacity:0.30000000000000004;isolation:isolate"></polygon><polygon points="346.14 85.58 354 91 356.18 105.5 361.5 95.23 374.96 102 398.66 83 346.14 85.58" style="fill:#1B2058"></polygon><polygon points="346.14 85.58 354 91 356.18 105.5 361.5 95.23 374.96 102 398.66 83 346.14 85.58" style="fill:#fff;opacity:0.6000000000000001;isolation:isolate"></polygon><polygon points="354 91 398.66 83 361.5 95.23 356.18 105.5 354 91" style="opacity:0.2;isolation:isolate"></polygon></g></g></svg>